<svg width="450" height="461" viewBox="0 0 450 461" fill="none" xmlns="http://www.w3.org/2000/svg">
<g clip-path="url(#clip0_1_2)">
<path d="M225 325C307.843 325 375 257.843 375 175C375 92.1573 307.843 25 225 25C142.157 25 75 92.1573 75 175C75 257.843 142.157 325 225 325Z" fill="white"/>
<path d="M375 175H75V375H375V175Z" fill="white"/>
<path d="M450 375H0V425H450V375Z" fill="white"/>
<path d="M225 425C349.264 425 450 402.614 450 375C450 347.386 349.264 325 225 325C100.736 325 0 347.386 0 375C0 402.614 100.736 425 225 425Z" fill="white"/>
<path d="M225 461C252.614 461 275 455.404 275 448.5C275 441.596 252.614 436 225 436C197.386 436 175 441.596 175 448.5C175 455.404 197.386 461 225 461Z" fill="white"/>
<path d="M225 50C238.807 50 250 38.8071 250 25C250 11.1929 238.807 0 225 0C211.193 0 200 11.1929 200 25C200 38.8071 211.193 50 225 50Z" fill="white"/>
</g>
<defs>
<clipPath id="clip0_1_2">
<rect width="450" height="461" fill="white"/>
</clipPath>
</defs>
</svg>
