<svg width="174" height="118" viewBox="0 0 174 118" fill="none" xmlns="http://www.w3.org/2000/svg">
<path fill-rule="evenodd" clip-rule="evenodd" d="M155.96 48.2906C146.075 43.0993 133.583 40 120 40C87.9675 40 62 57.237 62 78.5C62 85.9984 65.2294 92.9961 70.8153 98.9138C38.9275 94.1222 15 74.0429 15 50C15 22.3858 46.5639 0 85.5 0C123.629 0 154.689 21.4678 155.96 48.2906Z" fill="white"/>
<ellipse cx="120.5" cy="78.5" rx="53.5" ry="33.5" fill="white"/>
<path d="M27.6161 73.3996L61.9847 91.2005L6.75249 106L27.6161 73.3996Z" fill="white"/>
<path d="M154.277 91.2258L168.006 118L129 107.548L154.277 91.2258Z" fill="white"/>
</svg>
